<!--
Font Awesome Free License

Font Awesome Free is free, open source, and GPL friendly. You can use it for
commercial projects, open source projects, or really almost whatever you want.
Full Font Awesome Free license: https://fontawesome.com/license/free.

# Icons: CC BY 4.0 License (https://creativecommons.org/licenses/by/4.0/)
In the Font Awesome Free download, the CC BY 4.0 license applies to all icons
packaged as SVG and JS file types.

# Fonts: SIL OFL 1.1 License (https://scripts.sil.org/OFL)
In the Font Awesome Free download, the SIL OFL license applies to all icons
packaged as web and desktop font files.

# Code: MIT License (https://opensource.org/licenses/MIT)
In the Font Awesome Free download, the MIT license applies to all non-font and
non-icon files.

# Attribution
Attribution is required by MIT, SIL OFL, and CC BY licenses. Downloaded Font
Awesome Free files already contain embedded comments with sufficient
attribution, so you shouldn't need to do anything additional when using these
files normally.

We've kept attribution comments terse, so we ask that you do not actively work
to remove them from files, especially code. They're a great way for folks to
learn about Font Awesome.

# Brand Icons
All brand icons are trademarks of their respective owners. The use of these
trademarks does not indicate endorsement of the trademark holder by Font
Awesome, nor vice versa. **Please do not use brand logos for any purpose except
to represent the company, product, or service to which they refer.**
-->

<svg aria-hidden="true" focusable="false" data-prefix="fab" data-icon="youtube" class="svg-inline--fa fa-youtube fa-w-18" role="img" xmlns="http://www.w3.org/2000/svg" viewBox="0 0 576 512"><path fill="#777777" d="M549.655 124.083c-6.281-23.65-24.787-42.276-48.284-48.597C458.781 64 288 64 288 64S117.22 64 74.629 75.486c-23.497 6.322-42.003 24.947-48.284 48.597-11.412 42.867-11.412 132.305-11.412 132.305s0 89.438 11.412 132.305c6.281 23.65 24.787 41.5 48.284 47.821C117.22 448 288 448 288 448s170.78 0 213.371-11.486c23.497-6.321 42.003-24.171 48.284-47.821 11.412-42.867 11.412-132.305 11.412-132.305s0-89.438-11.412-132.305zm-317.51 213.508V175.185l142.739 81.205-142.739 81.201z"></path></svg>
